<svg width="39" height="39" viewBox="0 0 39 39" fill="none" xmlns="http://www.w3.org/2000/svg">
<g clip-path="url(#clip0_868_13797)">
<path d="M19.5 39C30.2696 39 39 30.2696 39 19.5C39 8.73045 30.2696 0 19.5 0C8.73045 0 0 8.73045 0 19.5C0 30.2696 8.73045 39 19.5 39Z" fill="black"/>
<path d="M25.8406 5.98535H21.5209C18.9574 5.98535 16.1061 7.06351 16.1061 10.7794C16.1186 12.0741 16.1061 13.3141 16.1061 14.7096H13.1405V19.4288H16.1979V33.0143H21.8159V19.3391H25.524L25.8595 14.6964H21.7191C21.7191 14.6964 21.7284 12.6311 21.7191 12.0313C21.7191 10.5629 23.2471 10.647 23.339 10.647C24.0661 10.647 25.4798 10.6491 25.8427 10.647V5.98535H25.8406Z" fill="white"/>
</g>
<defs>
<clipPath id="clip0_868_13797">
<rect width="39" height="39" fill="white"/>
</clipPath>
</defs>
</svg>
