<svg width="39" height="39" viewBox="0 0 39 39" fill="none" xmlns="http://www.w3.org/2000/svg">
<g clip-path="url(#clip0_868_13800)">
<mask id="mask0_868_13800" style="mask-type:luminance" maskUnits="userSpaceOnUse" x="0" y="0" width="39" height="39">
<path d="M19.5 39C30.2696 39 39 30.2696 39 19.5C39 8.73045 30.2696 0 19.5 0C8.73045 0 0 8.73045 0 19.5C0 30.2696 8.73045 39 19.5 39Z" fill="white"/>
</mask>
<g mask="url(#mask0_868_13800)">
<path d="M8.37891 78.9141C31.5166 78.9141 50.2734 60.1572 50.2734 37.0195C50.2734 13.8818 31.5166 -4.875 8.37891 -4.875C-14.7588 -4.875 -33.5156 13.8818 -33.5156 37.0195C-33.5156 60.1572 -14.7588 78.9141 8.37891 78.9141Z" fill="black"/>
</g>
<path d="M24.9844 15.5391C25.8257 15.5391 26.5078 14.857 26.5078 14.0156C26.5078 13.1743 25.8257 12.4922 24.9844 12.4922C24.143 12.4922 23.4609 13.1743 23.4609 14.0156C23.4609 14.857 24.143 15.5391 24.9844 15.5391Z" fill="white"/>
<path d="M19.5 14.625C18.5358 14.625 17.5933 14.9109 16.7916 15.4466C15.9899 15.9823 15.3651 16.7436 14.9961 17.6344C14.6271 18.5252 14.5306 19.5054 14.7187 20.4511C14.9068 21.3967 15.3711 22.2654 16.0529 22.9471C16.7346 23.6289 17.6033 24.0932 18.5489 24.2813C19.4946 24.4694 20.4748 24.3729 21.3656 24.0039C22.2564 23.6349 23.0177 23.0101 23.5534 22.2084C24.0891 21.4067 24.375 20.4642 24.375 19.5C24.375 18.2071 23.8614 16.9671 22.9471 16.0529C22.0329 15.1386 20.7929 14.625 19.5 14.625ZM19.5 21.9375C19.0179 21.9375 18.5466 21.7945 18.1458 21.5267C17.745 21.2589 17.4325 20.8782 17.248 20.4328C17.0636 19.9874 17.0153 19.4973 17.1093 19.0245C17.2034 18.5516 17.4355 18.1173 17.7764 17.7764C18.1173 17.4355 18.5516 17.2034 19.0245 17.1093C19.4973 17.0153 19.9874 17.0636 20.4328 17.248C20.8782 17.4325 21.2589 17.745 21.5267 18.1458C21.7945 18.5466 21.9375 19.0179 21.9375 19.5C21.9375 20.1465 21.6807 20.7665 21.2236 21.2236C20.7665 21.6807 20.1465 21.9375 19.5 21.9375Z" fill="white"/>
<path d="M25.5938 9.75H13.4062C11.387 9.75 9.75 11.387 9.75 13.4062V25.5938C9.75 27.613 11.387 29.25 13.4062 29.25H25.5938C27.613 29.25 29.25 27.613 29.25 25.5938V13.4062C29.25 11.387 27.613 9.75 25.5938 9.75Z" stroke="white" stroke-width="0.625" stroke-miterlimit="10"/>
</g>
<defs>
<clipPath id="clip0_868_13800">
<rect width="39" height="39" fill="white"/>
</clipPath>
</defs>
</svg>
