<svg width="147" height="45" viewBox="0 0 147 45" fill="none" xmlns="http://www.w3.org/2000/svg">
<path d="M70.4978 17.3058V28.3623H67.8045V21.7316L65.3318 28.3623H63.1583L60.6698 21.7158V28.3623H57.9765V17.3058H61.158L64.2608 24.9603L67.332 17.3058H70.4978ZM75.1278 19.4636V21.7001H78.7345V23.7791H75.1278V26.2046H79.207V28.3623H72.4345V17.3058H79.207V19.4636H75.1278ZM90.8465 28.3623H88.1533L83.6488 21.5426V28.3623H80.9555V17.3058H83.6488L88.1533 24.1571V17.3058H90.8465V28.3623ZM100.753 17.3058V19.4636H97.823V28.3623H95.1298V19.4636H92.2003V17.3058H100.753ZM108.987 26.4093H104.86L104.199 28.3623H101.38L105.38 17.3058H108.499L112.499 28.3623H109.648L108.987 26.4093ZM108.294 24.3303L106.924 20.2826L105.569 24.3303H108.294ZM116.41 26.2833H119.938V28.3623H113.717V17.3058H116.41V26.2833ZM123.922 28.4546C123.358 28.4546 122.84 28.3059 122.369 28.0085C121.897 27.7112 121.518 27.3164 121.23 26.8242C120.954 26.3218 120.815 25.7629 120.815 25.1477C120.815 24.512 120.928 23.9326 121.154 23.4097C121.389 22.8765 121.728 22.4509 122.169 22.1331C122.62 21.8152 123.163 21.6562 123.799 21.6562C124.927 21.6562 125.706 21.9177 126.137 22.4407C126.137 23.1277 125.947 23.4712 125.568 23.4712C125.394 23.4712 125.26 23.4353 125.168 23.3635C125.076 23.2815 124.958 23.1379 124.814 22.9329C124.496 22.4612 124.117 22.2253 123.676 22.2253C123.256 22.2253 122.871 22.4253 122.522 22.8252C122.184 23.2251 122.015 23.8198 122.015 24.6094C122.015 25.4297 122.215 26.1116 122.615 26.655C123.025 27.1985 123.589 27.4702 124.307 27.4702C124.737 27.4702 125.096 27.4087 125.383 27.2856C125.681 27.1523 125.896 27.0344 126.029 26.9319L126.137 26.855C126.198 26.855 126.229 26.9216 126.229 27.0549C126.229 27.1267 126.198 27.219 126.137 27.3318C125.932 27.6189 125.629 27.8804 125.229 28.1162C124.83 28.3418 124.394 28.4546 123.922 28.4546ZM128.706 28.47C128.234 28.47 127.844 28.3469 127.537 28.1008C127.229 27.8445 127.075 27.4651 127.075 26.9626C127.075 26.3474 127.475 25.8347 128.275 25.4246C128.624 25.2502 128.967 25.1118 129.305 25.0093C129.654 24.9067 130.003 24.7888 130.351 24.6555C130.444 24.6248 130.49 24.5479 130.49 24.4248V23.2712C130.49 22.9431 130.387 22.6919 130.182 22.5176C129.977 22.333 129.731 22.2407 129.444 22.2407C129.136 22.2407 128.88 22.3484 128.675 22.5637C128.47 22.7688 128.367 23.0405 128.367 23.3789C128.367 23.7378 128.157 23.9172 127.737 23.9172C127.439 23.9172 127.239 23.8198 127.137 23.625C127.137 23.4097 127.224 23.1892 127.398 22.9636C127.583 22.7278 127.819 22.5125 128.106 22.3176C128.393 22.1228 128.706 21.9639 129.044 21.8408C129.393 21.7178 129.736 21.6562 130.074 21.6562C130.638 21.6562 131.043 21.7947 131.29 22.0715C131.536 22.3381 131.659 22.7739 131.659 23.3789V26.9319C131.659 27.1472 131.715 27.3267 131.828 27.4702C131.941 27.6138 132.094 27.6855 132.289 27.6855C132.423 27.6855 132.602 27.6138 132.828 27.4702C132.869 27.4702 132.889 27.5112 132.889 27.5933C132.889 27.7266 132.864 27.8342 132.812 27.9163C132.392 28.2751 132.033 28.4546 131.736 28.4546C131.5 28.4546 131.274 28.3572 131.059 28.1624C130.844 27.9675 130.695 27.7625 130.613 27.5471C130.562 27.5881 130.495 27.6445 130.413 27.7163C130.341 27.7778 130.28 27.8291 130.228 27.8701C130.013 28.0342 129.777 28.1777 129.521 28.3008C129.275 28.4136 129.003 28.47 128.706 28.47ZM129.29 27.5933C129.577 27.5933 129.849 27.5112 130.105 27.3472C130.362 27.1831 130.49 27.0088 130.49 26.8242V25.24C130.223 25.3425 129.967 25.4348 129.721 25.5168C129.485 25.5989 129.295 25.6655 129.152 25.7168C128.967 25.7886 128.788 25.9167 128.613 26.1013C128.449 26.2859 128.367 26.4961 128.367 26.7319C128.367 27.0396 128.459 27.26 128.644 27.3933C128.839 27.5266 129.054 27.5933 129.29 27.5933ZM133.551 28.4084C133.51 28.3674 133.489 28.2803 133.489 28.147C133.489 28.0239 133.51 27.9624 133.551 27.9624C133.633 27.9624 133.745 27.947 133.889 27.9163C134.032 27.8855 134.166 27.8445 134.289 27.7932C134.412 27.7419 134.479 27.6958 134.489 27.6548C134.53 27.5112 134.555 27.3472 134.566 27.1626C134.586 26.978 134.596 26.7832 134.596 26.5781V23.6711C134.596 23.2815 134.525 23.0046 134.381 22.8406C134.279 22.7175 134.156 22.6355 134.012 22.5945C133.879 22.5535 133.756 22.533 133.643 22.533C133.54 22.5227 133.489 22.5073 133.489 22.4868C133.489 22.2407 133.52 22.1125 133.581 22.1023C134.699 21.928 135.345 21.8152 135.519 21.7639L135.781 21.687C135.822 21.6768 135.847 21.7178 135.858 21.8101C135.868 21.9023 135.868 21.969 135.858 22.01L135.765 22.7791C135.95 22.5022 136.201 22.2458 136.519 22.01C136.847 21.7639 137.17 21.6409 137.488 21.6409C138.083 21.6409 138.483 21.7896 138.688 22.0869C138.688 22.4458 138.631 22.7073 138.519 22.8713C138.406 23.0354 138.267 23.1174 138.103 23.1174C137.919 23.1174 137.75 23.0303 137.596 22.856C137.442 22.6816 137.232 22.5945 136.965 22.5945C136.76 22.5945 136.565 22.6663 136.381 22.8098C136.196 22.9431 136.047 23.1174 135.935 23.3328C135.832 23.5378 135.781 23.7532 135.781 23.9788V26.2859C135.781 26.5833 135.791 26.8447 135.812 27.0703C135.832 27.2959 135.863 27.4907 135.904 27.6548C135.924 27.6958 135.996 27.7419 136.119 27.7932C136.242 27.8445 136.375 27.8855 136.519 27.9163C136.673 27.947 136.781 27.9624 136.842 27.9624C136.873 27.9624 136.893 28.0239 136.904 28.147C136.914 28.27 136.909 28.3572 136.888 28.4084L135.227 28.3315L133.551 28.4084ZM142.502 28.4546C141.938 28.4546 141.42 28.3059 140.949 28.0085C140.477 27.7112 140.098 27.3164 139.811 26.8242C139.534 26.3218 139.395 25.7629 139.395 25.1477C139.395 24.4299 139.529 23.8096 139.795 23.2866C140.062 22.7637 140.426 22.3638 140.887 22.0869C141.349 21.7998 141.866 21.6562 142.441 21.6562C142.912 21.6562 143.328 21.7485 143.687 21.9331C144.045 22.1074 144.322 22.333 144.517 22.6099C144.702 22.897 144.835 23.1892 144.917 23.4866C145.009 23.7737 145.055 24.0608 145.055 24.3479C145.055 24.553 145.025 24.6812 144.963 24.7324C144.902 24.7734 144.784 24.7939 144.609 24.7939H140.733C140.651 24.7939 140.61 24.8196 140.61 24.8708C140.61 25.3015 140.698 25.7168 140.872 26.1167C141.046 26.5063 141.302 26.8293 141.641 27.0857C141.979 27.342 142.395 27.4702 142.887 27.4702C143.317 27.4702 143.676 27.4087 143.963 27.2856C144.261 27.1523 144.476 27.0344 144.609 26.9319L144.717 26.855C144.779 26.855 144.809 26.9216 144.809 27.0549C144.809 27.1267 144.779 27.219 144.717 27.3318C144.512 27.6189 144.209 27.8804 143.81 28.1162C143.41 28.3418 142.974 28.4546 142.502 28.4546ZM140.733 24.1479H143.733C143.784 24.1479 143.81 24.0967 143.81 23.9941C143.81 23.7686 143.748 23.5225 143.625 23.2559C143.512 22.979 143.338 22.738 143.102 22.533C142.866 22.3279 142.569 22.2253 142.21 22.2253C141.882 22.2253 141.6 22.3381 141.364 22.5637C141.128 22.7791 140.949 23.0303 140.826 23.3174C140.703 23.5942 140.641 23.8352 140.641 24.0403C140.641 24.1121 140.672 24.1479 140.733 24.1479Z" fill="black"/>
<rect width="45.9351" height="44.7248" rx="3.40572" fill="black"/>
<path d="M19.2717 5.12304C16.6167 5.26868 13.6268 6.1048 11.6898 7.2457C10.6187 7.87683 9.52053 8.94491 8.60635 10.2476C7.19738 12.2516 6.65431 13.9454 6.64827 16.3297C6.64224 18.2744 6.97713 19.6769 8.00294 21.9938C8.31068 22.6896 8.41929 22.9243 9.14037 24.4347C10.6791 27.6497 11.2614 28.9336 11.4846 29.5863C11.723 30.2875 11.8286 30.6678 11.7954 30.6975C11.7743 30.7164 11.7833 30.7407 11.8165 30.7703C11.8497 30.8 11.91 30.9888 11.9794 31.2882C12.3717 32.9523 12.5436 34.5706 12.5044 36.2887C12.4803 37.3406 12.4048 38.2037 12.2449 39.2421C12.2148 39.4417 12.1937 39.6089 12.1967 39.6143C12.2118 39.6278 28.2746 39.5658 28.2897 39.5496C28.2988 39.5442 28.3229 39.2016 28.344 38.789C28.4044 37.5806 28.4345 37.4512 28.7453 37.0331C29.2974 36.2995 29.7047 36.1431 31.6598 35.9381C35.4794 35.5308 36.7134 35.1047 37.1448 34.0393C37.3802 33.4567 37.3862 32.5478 37.169 30.7541L37.1448 30.5599L37.3832 30.2552C37.6638 29.9018 37.7814 29.6834 37.8237 29.4568C37.8599 29.2626 37.8237 29.1035 37.7211 28.9821C37.6245 28.8688 37.6276 28.8284 37.7271 28.7205C37.7935 28.6504 37.8116 28.6018 37.8207 28.4589C37.8357 28.2485 37.8116 28.1325 37.6004 27.4825C37.3651 26.757 37.2836 26.3901 37.2384 25.8507C37.2172 25.581 37.2685 25.1629 37.3409 25.0119C37.4315 24.8339 37.6909 24.6828 38.231 24.4967C38.8404 24.2864 39.0878 24.1353 39.2176 23.9034C39.2779 23.7928 39.287 23.7334 39.287 23.4907C39.287 23.1724 39.2628 23.1023 39.0577 22.8326C38.8072 22.5035 38.0288 21.6836 36.8974 20.5616C35.8022 19.4719 35.4794 19.1051 35.3497 18.7976C35.2773 18.6277 35.232 17.7403 35.232 16.4835C35.229 15.2239 35.1868 14.0075 35.1264 13.6137C35.0238 12.9232 34.6195 11.812 34.1428 10.9246C33.642 9.99141 33.1321 9.32521 32.396 8.64553C31.2103 7.55048 29.6655 6.72245 27.448 5.99152C25.9575 5.50064 24.7115 5.26329 22.9978 5.15001C22.4366 5.11225 19.8268 5.09337 19.2717 5.12304Z" fill="url(#paint0_linear_883_88)"/>
<defs>
<linearGradient id="paint0_linear_883_88" x1="22.9676" y1="39.6162" x2="22.9676" y2="5.10845" gradientUnits="userSpaceOnUse">
<stop stop-color="#DDD3EF" stop-opacity="0.55"/>
<stop offset="0.541667" stop-color="#FDD9FF"/>
<stop offset="1" stop-color="#C1E7FF"/>
</linearGradient>
</defs>
</svg>
