<svg width="16" height="17" viewBox="0 0 16 17" fill="none" xmlns="http://www.w3.org/2000/svg">
<path d="M13.0473 15.5847C12.5141 15.9645 9.09322 13.5573 8.43804 13.552C7.78286 13.5467 4.32346 15.8986 3.79653 15.5103C3.26961 15.122 4.50838 11.1339 4.31097 10.511C4.11356 9.88805 0.801385 7.33402 1.00886 6.71432C1.21638 6.09462 5.40288 6.03706 5.93602 5.65731C6.46917 5.2776 7.88157 1.3473 8.5368 1.35254C9.19193 1.35784 10.5405 5.31035 11.0675 5.69863C11.5944 6.08686 15.7795 6.21183 15.9769 6.83477C16.1743 7.45772 12.8213 9.9581 12.6138 10.5778C12.4063 11.1975 13.5804 15.205 13.0473 15.5847Z" fill="#F8B84E"/>
</svg>
